<svg width="42" height="12" viewBox="0 0 42 12" fill="none" xmlns="http://www.w3.org/2000/svg">
<line y1="-0.5" x2="17.2903" y2="-0.5" transform="matrix(-1 0.000740496 0.000349142 1 17.4165 6.25793)" stroke="#FF3434"/>
<line y1="-0.5" x2="6.16973" y2="-0.5" transform="matrix(0 -1 -1 0 0 9)" stroke="#FF3434"/>
<rect x="17.5" y="0.5" width="12" height="11" stroke="#FF3434"/>
<rect x="29.5" y="0.5" width="12" height="11" stroke="#FF3434"/>
<path d="M21 7.97556V7.12756L23.728 5.10356L23.216 4.51956H21V3.79956H26.712V4.51956H23.896C24.0773 4.67956 24.2587 4.84223 24.44 5.00756C24.6213 5.17289 24.8027 5.33823 24.984 5.50356L26.712 7.04756V7.88756L24.224 5.62356L21 7.97556Z" fill="#FF3434"/>
<path d="M35.8594 3.41406V9H35.1367V3.41406H35.8594Z" fill="#FF3434"/>
</svg>
