<svg width="15" height="11" viewBox="0 0 15 11" fill="none" xmlns="http://www.w3.org/2000/svg">
<line y1="0.5" x2="6" y2="0.5" stroke="#FF3434"/>
<line y1="-0.5" x2="6" y2="-0.5" transform="matrix(-1 0 0 1 15 1)" stroke="#FF3434"/>
<line x1="5.5" y1="11" x2="5.5" y2="1" stroke="#FF3434"/>
<line y1="-0.5" x2="10" y2="-0.5" transform="matrix(0 -1 -1 0 9 11)" stroke="#FF3434"/>
<line y1="10.5" x2="6" y2="10.5" stroke="#FF3434"/>
<line y1="-0.5" x2="6" y2="-0.5" transform="matrix(-1 0 0 1 15 11)" stroke="#FF3434"/>
<path fill-rule="evenodd" clip-rule="evenodd" d="M5 7.89998V3C3.85888 3.23164 3 4.24051 3 5.44999C3 6.65947 3.85888 7.66835 5 7.89998Z" fill="#FF3434"/>
<path fill-rule="evenodd" clip-rule="evenodd" d="M10 7.89998V3C11.1411 3.23164 12 4.24051 12 5.44999C12 6.65947 11.1411 7.66835 10 7.89998Z" fill="#FF3434"/>
</svg>
