<svg width="34" height="10" viewBox="0 0 34 10" fill="none" xmlns="http://www.w3.org/2000/svg">
<rect x="14.5" y="1.5" width="19" height="7" stroke="#FF3434"/>
<line y1="-0.5" x2="13.6503" y2="-0.5" transform="matrix(-1 -0.000937958 0.000275639 -1 13.75 4.74207)" stroke="#FF3434"/>
<line x1="0.5" y1="2" x2="0.5" y2="8.16973" stroke="#FF3434"/>
<path d="M18.6846 5.25439L17.3101 3.50879H17.6152L18.8359 5.06152L20.0566 3.50879H20.3618L18.9897 5.25439L20.3618 7H20.0566L18.8359 5.44727L17.6152 7H17.3101L18.6846 5.25439ZM24.3486 5.25439L22.9741 3.50879H23.2793L24.5 5.06152L25.7207 3.50879H26.0259L24.6538 5.25439L26.0259 7H25.7207L24.5 5.44727L23.2793 7H22.9741L24.3486 5.25439ZM30.0127 5.25439L28.6382 3.50879H28.9434L30.1641 5.06152L31.3848 3.50879H31.6899L30.3179 5.25439L31.6899 7H31.3848L30.1641 5.44727L28.9434 7H28.6382L30.0127 5.25439Z" fill="#FF3434"/>
</svg>
