<svg width="30" height="12" viewBox="0 0 30 12" fill="none" xmlns="http://www.w3.org/2000/svg">
<line y1="-0.5" x2="17.2903" y2="-0.5" transform="matrix(-1 0.000740496 0.000349142 1 17.4165 6.25793)" stroke="#FF3434"/>
<line y1="-0.5" x2="6.16973" y2="-0.5" transform="matrix(0 -1 -1 0 0 9)" stroke="#FF3434"/>
<rect x="17.5" y="0.5" width="12" height="11" stroke="#FF3434"/>
<path d="M21 7.30543L22.768 6.61743V4.35343L21 3.67343V2.94543L26.736 5.17743V5.82543L21 8.04943V7.30543ZM25.136 5.76143C25.1787 5.74543 25.256 5.71877 25.368 5.68143C25.48 5.6441 25.5947 5.60677 25.712 5.56943C25.8347 5.53743 25.928 5.51077 25.992 5.48943C25.8267 5.4521 25.664 5.40943 25.504 5.36143C25.3493 5.31343 25.2267 5.27343 25.136 5.24143L23.408 4.59343V6.40143L25.136 5.76143Z" fill="#FF3434"/>
</svg>
