<svg width="38" height="20" viewBox="0 0 38 20" fill="none" xmlns="http://www.w3.org/2000/svg">
<line x1="37.0001" y1="4.2" x2="29.0001" y2="4.20352" stroke="#FF3434" stroke-width="0.4"/>
<path d="M35.5499 5.00001L35.2059 6.87391C34.8341 8.89922 33.2587 10.4895 31.237 10.8803L29.3664 11.2419" stroke="#FF3434" stroke-width="0.3"/>
<rect x="1.5" y="1.5" width="27" height="17" fill="white" fill-opacity="0.2" stroke="#FF3434"/>
<path d="M4 1.5L24.5 18" stroke="#FF3434" stroke-width="0.3"/>
<path d="M8 1L28.5 17.5" stroke="#FF3434" stroke-width="0.3"/>
<path d="M12 1L28.5 14.5" stroke="#FF3434" stroke-width="0.3"/>
<path d="M16 1L28.5 11" stroke="#FF3434" stroke-width="0.3"/>
<path d="M20 1L28 7.5" stroke="#FF3434" stroke-width="0.3"/>
<path d="M24 1L28 4" stroke="#FF3434" stroke-width="0.3"/>
<path d="M1.5 3L20 18" stroke="#FF3434" stroke-width="0.3"/>
<path d="M1.5 6.5L16.5 18.5" stroke="#FF3434" stroke-width="0.3"/>
<path d="M2 10L12 18" stroke="#FF3434" stroke-width="0.3"/>
<path d="M2 13L8 18" stroke="#FF3434" stroke-width="0.3"/>
<path d="M1 15L6 19" stroke="#FF3434" stroke-width="0.3"/>
</svg>
