<svg width="42" height="12" viewBox="0 0 42 12" fill="none" xmlns="http://www.w3.org/2000/svg">
<line y1="-0.5" x2="17.2903" y2="-0.5" transform="matrix(-1 0.000740496 0.000349142 1 17.4165 6.25793)" stroke="#FF3434"/>
<line y1="-0.5" x2="6.16973" y2="-0.5" transform="matrix(0 -1 -1 0 0 9)" stroke="#FF3434"/>
<rect x="17.5" y="0.5" width="12" height="11" stroke="#FF3434"/>
<rect x="29.5" y="0.5" width="12" height="11" stroke="#FF3434"/>
<path d="M21 7.30543L22.768 6.61743V4.35343L21 3.67343V2.94543L26.736 5.17743V5.82543L21 8.04943V7.30543ZM25.136 5.76143C25.1787 5.74543 25.256 5.71877 25.368 5.68143C25.48 5.6441 25.5947 5.60677 25.712 5.56943C25.8347 5.53743 25.928 5.51077 25.992 5.48943C25.8267 5.4521 25.664 5.40943 25.504 5.36143C25.3493 5.31343 25.2267 5.27343 25.136 5.24143L23.408 4.59343V6.40143L25.136 5.76143Z" fill="#FF3434"/>
<path d="M38.712 5.30644C38.712 6.0211 38.6053 6.55977 38.392 6.92244C38.184 7.29044 37.8187 7.47444 37.296 7.47444C36.96 7.47444 36.68 7.3811 36.456 7.19444C36.2373 7.00777 36.096 6.73844 36.032 6.38644H35.992C35.9547 6.62644 35.8853 6.84244 35.784 7.03444C35.6827 7.23177 35.5387 7.38644 35.352 7.49844C35.1653 7.61044 34.9227 7.66644 34.624 7.66644C34.1067 7.66644 33.7067 7.48777 33.424 7.13044C33.1413 6.77844 33 6.29577 33 5.68244V3.67444H38.712V5.30644ZM36.28 5.45044C36.28 5.9411 36.3573 6.2771 36.512 6.45844C36.672 6.63977 36.9067 6.73044 37.216 6.73044C37.5307 6.73044 37.7547 6.61844 37.888 6.39444C38.0267 6.17577 38.096 5.82377 38.096 5.33844V4.39444H36.28V5.45044ZM35.68 4.39444H33.608V5.54644C33.608 6.0531 33.7067 6.4051 33.904 6.60244C34.1013 6.79977 34.36 6.89844 34.68 6.89844C34.9787 6.89844 35.2187 6.79444 35.4 6.58644C35.5867 6.38377 35.68 6.01844 35.68 5.49044V4.39444Z" fill="#FF3434"/>
</svg>
