<svg width="9" height="19" viewBox="0 0 9 19" fill="none" xmlns="http://www.w3.org/2000/svg">
<circle cx="4.5" cy="14.5" r="4.5" fill="#FF3434"/>
<circle opacity="0.6" r="1" transform="matrix(-1 0 0 1 4 4)" fill="#FF3434"/>
<line x1="4.15" y1="5" x2="4.15" y2="19" stroke="#FF3434" stroke-width="0.3"/>
<path d="M5 1C5 1 7.5 1.42857 7.5 4C7.5 6.14286 5 7 5 7" stroke="#FF3434" stroke-width="0.3"/>
<path d="M3.5 1C3.5 1 1 1.42857 1 4C1 6.14286 3.5 7 3.5 7" stroke="#FF3434" stroke-width="0.3"/>
<path d="M5 2C5 2 6.5 2.5 6.5 4C6.5 5.5 5 6 5 6" stroke="#FF3434" stroke-width="0.3"/>
<path d="M3.5 2C3.5 2 2 2.5 2 4C2 5.5 3.5 6 3.5 6" stroke="#FF3434" stroke-width="0.3"/>
</svg>
