<svg width="25" height="10" viewBox="0 0 25 10" fill="none" xmlns="http://www.w3.org/2000/svg">
<line y1="-0.5" x2="13.6503" y2="-0.5" transform="matrix(-1 -0.000937958 0.000275639 -1 13.75 4.74207)" stroke="#FF3434"/>
<line x1="0.5" y1="2" x2="0.5" y2="8.16973" stroke="#FF3434"/>
<rect x="14.5" y="1.5" width="10" height="7" stroke="#FF3434"/>
<path d="M18.1406 3.30078L18.1523 3.66016C18.1549 3.70964 18.166 3.74544 18.1855 3.76758C18.2064 3.78971 18.2422 3.80078 18.293 3.80078L20.4004 3.80078C20.3743 3.75 20.3509 3.69466 20.3301 3.63477C20.3118 3.58398 20.2956 3.52474 20.2812 3.45703C20.2669 3.38932 20.2598 3.31706 20.2598 3.24023H20.3594C20.3594 3.31185 20.3757 3.38411 20.4082 3.45703C20.4421 3.52995 20.485 3.59701 20.5371 3.6582C20.5905 3.7207 20.6504 3.77474 20.7168 3.82031C20.7845 3.86719 20.8522 3.90039 20.9199 3.91992V4.09961L18.293 4.09961C18.2422 4.09961 18.2064 4.11068 18.1855 4.13281C18.166 4.15495 18.1549 4.19076 18.1523 4.24023L18.1406 4.54102H18V3.30078H18.1406ZM19.6035 5.85156C19.6035 5.78125 19.5853 5.71159 19.5488 5.64258C19.5137 5.57357 19.4648 5.51237 19.4023 5.45898C19.3398 5.4056 19.2656 5.36198 19.1797 5.32812C19.0938 5.29557 19.0007 5.2793 18.9004 5.2793C18.7845 5.2793 18.6771 5.29362 18.5781 5.32227C18.4805 5.35091 18.3958 5.38997 18.3242 5.43945C18.2526 5.48893 18.1966 5.54688 18.1562 5.61328C18.1159 5.67969 18.0957 5.7513 18.0957 5.82813C18.0957 5.89453 18.1133 5.95964 18.1484 6.02344C18.1849 6.08724 18.2363 6.14323 18.3027 6.19141C18.3691 6.24089 18.4492 6.2806 18.543 6.31055C18.6367 6.34049 18.7422 6.35547 18.8594 6.35547C18.9727 6.35547 19.0749 6.34375 19.166 6.32031C19.2585 6.29688 19.3366 6.26367 19.4004 6.2207C19.4655 6.17773 19.5156 6.125 19.5508 6.0625C19.5859 6 19.6035 5.92969 19.6035 5.85156ZM20.8398 6.19141C20.8164 6.13802 20.7858 6.08008 20.748 6.01758C20.7116 5.95508 20.6654 5.89128 20.6094 5.82617C20.5534 5.76237 20.487 5.69922 20.4102 5.63672C20.3346 5.57422 20.2461 5.51693 20.1445 5.46484C20.0443 5.41276 19.9297 5.36719 19.8008 5.32812C19.6732 5.28906 19.5299 5.26107 19.3711 5.24414C19.3932 5.25716 19.4238 5.2806 19.4629 5.31445C19.502 5.34961 19.5404 5.39388 19.5781 5.44727C19.6172 5.50065 19.6504 5.56315 19.6777 5.63477C19.7064 5.70638 19.7207 5.78646 19.7207 5.875C19.7207 5.9974 19.6999 6.10807 19.6582 6.20703C19.6165 6.30599 19.5599 6.38932 19.4883 6.45703C19.418 6.52604 19.3359 6.57878 19.2422 6.61523C19.1484 6.65299 19.0488 6.67188 18.9434 6.67188C18.7949 6.67188 18.6621 6.64844 18.5449 6.60156C18.4277 6.55599 18.3281 6.49414 18.2461 6.41602C18.1654 6.33789 18.1035 6.24674 18.0605 6.14258C18.0176 6.03971 17.9961 5.93099 17.9961 5.81641C17.9961 5.6875 18.0247 5.56771 18.082 5.45703C18.1393 5.34766 18.2207 5.25326 18.3262 5.17383C18.4316 5.0944 18.5586 5.0319 18.707 4.98633C18.8555 4.94206 19.0208 4.91992 19.2031 4.91992C19.3542 4.91992 19.4993 4.93685 19.6387 4.9707C19.778 5.00586 19.9082 5.05339 20.0293 5.11328C20.1517 5.17448 20.2637 5.24544 20.3652 5.32617C20.4668 5.4069 20.556 5.49284 20.6328 5.58398C20.7096 5.67643 20.7721 5.77148 20.8203 5.86914C20.8685 5.9681 20.9004 6.0651 20.916 6.16016L20.8398 6.19141Z" fill="#FF3434"/>
</svg>
