<svg width="37" height="12" viewBox="0 0 37 12" fill="none" xmlns="http://www.w3.org/2000/svg">
<line y1="-0.5" x2="23.7599" y2="-0.5" transform="matrix(-1 -0.000538866 0.000479782 -1 23.9336 5.85852)" stroke="#FF3434"/>
<line x1="0.5" y1="3.11646" x2="0.5" y2="9.28618" stroke="#FF3434"/>
<path d="M23.5 6C23.5 3.51472 25.5147 1.5 28 1.5H36.5V10.5H28C25.5147 10.5 23.5 8.48528 23.5 6Z" fill="white" stroke="#FF3434"/>
<path d="M36 6H24V7.75L24.6403 8.72002C25.1449 9.48455 25.8498 10.0958 26.6782 10.4869L27.1765 10.7222L29.6471 11H36V6Z" fill="#FF3434"/>
<line y1="-0.5" x2="13.6503" y2="-0.5" transform="matrix(-1 -0.000937958 0.000275639 -1 13.75 5.74207)" stroke="#FF3434"/>
<line x1="0.5" y1="3" x2="0.5" y2="9.16973" stroke="#FF3434"/>
<path d="M20.5149 1.64133L13.0186 5.86477L20.5149 10.0882V1.64133Z" fill="#FF3434" stroke="#FF3434"/>
</svg>
