<svg width="14" height="7" viewBox="0 0 14 7" fill="none" xmlns="http://www.w3.org/2000/svg">
<mask id="path-1-inside-1_411:975" fill="white">
<path fill-rule="evenodd" clip-rule="evenodd" d="M0 0C0 3.86599 3.13401 7 7 7C10.866 7 14 3.86599 14 0H0Z"/>
</mask>
<path d="M0 0V-1H-1V0H0ZM14 0H15V-1H14V0ZM7 6C3.68629 6 1 3.31371 1 0H-1C-1 4.41828 2.58172 8 7 8V6ZM13 0C13 3.31371 10.3137 6 7 6V8C11.4183 8 15 4.41828 15 0H13ZM14 -1H0V1H14V-1Z" fill="#FF3434" mask="url(#path-1-inside-1_411:975)"/>
</svg>
