<svg width="37" height="10" viewBox="0 0 37 10" fill="none" xmlns="http://www.w3.org/2000/svg">
<line y1="-0.5" x2="22.8331" y2="-0.5" transform="matrix(-1 -0.000560739 0.000461067 -1 23 4.72083)" stroke="#FF3434"/>
<line x1="0.5" y1="1.97876" x2="0.5" y2="8.14849" stroke="#FF3434"/>
<rect x="12.4" y="0.4" width="9.2" height="9.2" fill="white" stroke="#FF3434" stroke-width="0.8"/>
<path d="M15.1636 9.07894L14.5961 8.52148L14.247 7.94102L14.2848 7.62006L14.58 7.01764L15.7478 6.99908L17.1583 7.25404L19.4806 7.85003L17.1045 6.81734L15.126 5.72755L14.2338 5.1479L14.5399 4.49452L15.7077 4.47596L17.1183 4.73483L19.3189 5.3015L18.2021 4.83872L15.9346 3.75352L15.078 3.20065L14.4948 2.63953L14.1965 2.06217L14.187 1.46068L14.5022 1.13923L15.1115 1.12954L15.4606 1.46388L15.0955 1.84083L14.7623 1.52577L14.8584 1.43048L15.0927 1.66507L15.2849 1.46668L15.0628 1.25924L14.5511 1.26737L14.3167 1.50941L14.3249 2.02887L14.6029 2.55968L15.1585 3.1017L15.9991 3.63919C16.7367 3.99471 17.1057 4.19069 17.1063 4.22715C17.1063 4.22975 17.1051 4.23237 17.1025 4.23502C17.1576 4.26279 17.2809 4.31683 17.4723 4.39713C17.6638 4.48004 17.9246 4.58919 18.255 4.72458L20.2212 5.53329L20.1914 5.62361L20.184 5.65498L17.3826 5.14084L15.6986 4.88631L14.6089 4.90363L14.413 5.1138L15.1906 5.61323L17.1652 6.70308L20.2612 8.0525L20.2314 8.14283L20.2241 8.1742L17.4226 7.66005L15.7386 7.40553L14.6489 7.42284L14.4069 7.67672L14.3675 7.90785L14.6885 8.43797L15.2597 8.97974L15.1636 9.07894Z" fill="#FF3434"/>
<path d="M36.5 5C36.5 2.51472 34.4853 0.5 32 0.5H23.5V9.5H32C34.4853 9.5 36.5 7.48528 36.5 5Z" fill="white" stroke="#FF3434"/>
<path d="M24 5H36V7L33.5 9L30.5 9.5H24V5Z" fill="#FF3434"/>
</svg>
