<svg width="49" height="11" viewBox="0 0 49 11" fill="none" xmlns="http://www.w3.org/2000/svg">
<line y1="-0.5" x2="21.8407" y2="-0.5" transform="matrix(-1 -0.000586217 0.000441028 -1 22.0005 5.24207)" stroke="#FF3434"/>
<line x1="0.5" y1="2.5" x2="0.5" y2="8.66973" stroke="#FF3434"/>
<path fill-rule="evenodd" clip-rule="evenodd" d="M22 2H49V9H22V2ZM23 5.5L26.182 2.31802L29.364 5.5L26.182 8.68198L23 5.5ZM32.682 2.31802L29.5 5.5L32.682 8.68198L35.864 5.5L32.682 2.31802ZM36 5.5L39.182 2.31802L42.364 5.5L39.182 8.68198L36 5.5ZM45.682 2.31802L42.5 5.5L45.682 8.68198L48.864 5.5L45.682 2.31802Z" fill="#FF3434"/>
</svg>
