<svg width="48" height="12" viewBox="0 0 48 12" fill="none" xmlns="http://www.w3.org/2000/svg">
<rect x="9.15" y="3.15" width="38.7" height="1.7" stroke="#FF3434" stroke-width="0.3"/>
<mask id="path-2-inside-1_411:1014" fill="white">
<path d="M0 0.5C0 0.223858 0.223858 0 0.5 0H4.5C4.77614 0 5 0.223858 5 0.5V0.5C5 0.776142 4.77614 1 4.5 1H0.5C0.223858 1 0 0.776142 0 0.5V0.5Z"/>
</mask>
<path d="M0.5 1H4.5V-1H0.5V1ZM4.5 0H0.5V2H4.5V0ZM0.5 0C0.776142 0 1 0.223857 1 0.5H-1C-1 1.32843 -0.328427 2 0.5 2V0ZM4 0.5C4 0.223858 4.22386 0 4.5 0V2C5.32843 2 6 1.32843 6 0.5H4ZM4.5 1C4.22386 1 4 0.776143 4 0.5H6C6 -0.328427 5.32843 -1 4.5 -1V1ZM0.5 -1C-0.328427 -1 -1 -0.328427 -1 0.5H1C1 0.776142 0.776142 1 0.5 1V-1Z" fill="#FF3434" mask="url(#path-2-inside-1_411:1014)"/>
<mask id="path-4-inside-2_411:1014" fill="white">
<path d="M0 7.5C0 7.22386 0.223858 7 0.5 7H4.5C4.77614 7 5 7.22386 5 7.5V7.5C5 7.77614 4.77614 8 4.5 8H0.5C0.223858 8 0 7.77614 0 7.5V7.5Z"/>
</mask>
<path d="M0.5 8H4.5V6H0.5V8ZM4.5 7H0.5V9H4.5V7ZM0.5 7C0.776142 7 1 7.22386 1 7.5H-1C-1 8.32843 -0.328427 9 0.5 9V7ZM4 7.5C4 7.22386 4.22386 7 4.5 7V9C5.32843 9 6 8.32843 6 7.5H4ZM4.5 8C4.22386 8 4 7.77614 4 7.5H6C6 6.67157 5.32843 6 4.5 6V8ZM0.5 6C-0.328427 6 -1 6.67157 -1 7.5H1C1 7.77614 0.776142 8 0.5 8V6Z" fill="#FF3434" mask="url(#path-4-inside-2_411:1014)"/>
<rect x="4.15" y="1.15" width="4.7" height="5.7" stroke="#FF3434" stroke-width="0.3"/>
</svg>
