<svg width="6" height="6" viewBox="0 0 6 6" fill="none" xmlns="http://www.w3.org/2000/svg">
<circle cx="3" cy="3" r="2.75" fill="white" stroke="#FF3434" stroke-width="0.5"/>
<path d="M1 1.5H5" stroke="#FF3434" stroke-width="0.6" stroke-linejoin="round"/>
<path d="M3 1.5V6" stroke="#FF3434" stroke-width="0.3"/>
<path d="M1.16797 1.47657C1.12681 1.47499 1.08764 1.45903 1.04601 1.45726C1.03875 1.45695 1.01549 1.45296 1.00868 1.45791C1.00019 1.46408 0.983108 1.46095 0.972656 1.46095" stroke="#FF3434" stroke-width="0.3" stroke-linecap="round"/>
<path d="M1.16797 1.60156C1.11352 1.5901 1.06446 1.58594 1.00955 1.58594C0.991712 1.58594 0.97853 1.59375 0.960938 1.59375C0.93972 1.59375 0.918876 1.59766 0.898438 1.59766" stroke="#FF3434" stroke-width="0.3" stroke-linecap="round"/>
<path d="M1.08195 1.57817C1.06205 1.57502 1.01768 1.54963 0.997961 1.56059C0.985058 1.56776 0.99817 1.56718 0.999697 1.57252C1.00177 1.57979 0.994468 1.59159 0.991234 1.5977C0.973763 1.6307 0.915741 1.61332 0.887501 1.61332C0.878682 1.61332 0.845167 1.60851 0.839758 1.61527C0.835966 1.62002 0.824181 1.61712 0.818491 1.62092C0.812482 1.62492 0.832537 1.62504 0.839758 1.62504C0.873911 1.62504 0.900442 1.62183 0.933508 1.63285" stroke="#FF3434" stroke-width="0.3" stroke-linecap="round"/>
<path d="M1.11719 1.63283C1.09426 1.61491 1.08185 1.6133 1.05273 1.6133C1.04306 1.6133 1.03387 1.60532 1.02344 1.61026C1.01254 1.61542 1.00883 1.6172 0.996094 1.6172C0.984922 1.6172 0.996888 1.61809 1.00217 1.62111C1.01076 1.62601 1.01464 1.63003 1.02517 1.63304C1.02982 1.63437 1.01425 1.64049 1.01172 1.64064C1.00268 1.64117 0.993436 1.64064 0.984375 1.64064C0.947087 1.64064 0.912201 1.64455 0.875 1.64455C0.855367 1.64455 0.836976 1.6441 0.818359 1.64823C0.788028 1.65497 0.758797 1.64519 0.730469 1.66408" stroke="#FF3434" stroke-width="0.3" stroke-linecap="round"/>
<path d="M4.8828 1.40625C4.95737 1.41557 5.03425 1.41016 5.10936 1.41016C5.11275 1.41016 5.12884 1.40779 5.13019 1.41276C5.13686 1.43721 5.03199 1.46729 5.01778 1.47179C4.97546 1.48517 4.9312 1.48749 4.88931 1.50217C4.8892 1.50221 4.86311 1.50945 4.87194 1.51259C4.91946 1.52947 4.97998 1.5246 5.02971 1.52713C5.0588 1.52861 5.0876 1.53125 5.11674 1.53125C5.1361 1.53125 5.11885 1.53506 5.10892 1.53776C5.03995 1.55651 4.96969 1.58856 4.89864 1.59744C4.88526 1.59911 4.88804 1.60043 4.90233 1.6059C4.94943 1.62394 5.00149 1.62598 5.05076 1.63498C5.09192 1.64251 5.13466 1.63281 5.17576 1.63281" stroke="#FF3434" stroke-width="0.3" stroke-linecap="round"/>
<path d="M4.9668 1.62598C4.97664 1.63343 4.99405 1.65037 5.00746 1.65037C5.02169 1.65037 5.03592 1.65037 5.05015 1.65037C5.07383 1.65037 5.09491 1.64631 5.11724 1.64631" stroke="#FF3434" stroke-width="0.3" stroke-linecap="round"/>
<path d="M5.05615 1.53235C5.07804 1.54285 5.10599 1.54861 5.13025 1.54861C5.15096 1.54861 5.15736 1.55513 5.17407 1.56397C5.18606 1.57032 5.18899 1.59349 5.19033 1.60554C5.19118 1.6132 5.19316 1.64355 5.19846 1.6462" stroke="#FF3434" stroke-width="0.3" stroke-linecap="round"/>
<path d="M1.00391 1.57422C1.00391 1.58637 1.0014 1.60296 1.00412 1.61523C1.00625 1.62481 1.01562 1.62945 1.01562 1.64062C1.01562 1.65746 0.982951 1.64453 0.972656 1.64453" stroke="#FF3434" stroke-width="0.3" stroke-linecap="round"/>
</svg>
