<svg width="27" height="12" viewBox="0 0 27 12" fill="none" xmlns="http://www.w3.org/2000/svg">
<line y1="-0.3" x2="3.93324" y2="-0.3" transform="matrix(-1 -6.2071e-05 0.00416516 -0.999991 4.93311 6.00024)" stroke="#FF3434" stroke-width="0.6" stroke-dasharray="1.2 1.2"/>
<path d="M17.7 6C17.7 5.79167 17.6865 5.58666 17.6603 5.38576L17.9577 5.34695C17.9002 4.90601 17.7853 4.48313 17.6206 4.08606L17.3435 4.20098C17.1851 3.81904 16.9777 3.46239 16.7291 3.13888L16.967 2.95608C16.7008 2.6097 16.3903 2.29918 16.0439 2.033L15.8611 2.27088C15.5376 2.02227 15.181 1.8149 14.799 1.65652L14.9139 1.3794C14.5169 1.21474 14.094 1.09978 13.653 1.04226L13.6142 1.33974C13.4133 1.31354 13.2083 1.3 13 1.3H12.4375V1H11.3125V1.3H10.1875V1H9.0625V1.3H7.9375V1H6.8125V1.3H5.6875V1H4.5625V1.3H4.3V1.625H4V2.875H4.3V4.125H4V5.375H4.3V6.625H4V7.875H4.3V9.125H4V10.375H4.3V10.7H4.5625V11H5.6875V10.7H6.8125V11H7.9375V10.7H9.0625V11H10.1875V10.7H11.3125V11H12.4375V10.7H13C13.2083 10.7 13.4133 10.6865 13.6142 10.6603L13.653 10.9577C14.094 10.9002 14.5169 10.7853 14.9139 10.6206L14.799 10.3435C15.181 10.1851 15.5376 9.97773 15.8611 9.72912L16.0439 9.967C16.3903 9.70082 16.7008 9.3903 16.967 9.04392L16.7291 8.86112C16.9777 8.53761 17.1851 8.18096 17.3435 7.79902L17.6206 7.91394C17.7853 7.51687 17.9002 7.09399 17.9577 6.65305L17.6603 6.61424C17.6865 6.41334 17.7 6.20833 17.7 6Z" fill="white" stroke="#FF3434" stroke-width="0.6" stroke-dasharray="1.2 1.2"/>
<path d="M26 1L19 6.2381L26 11" stroke="#FF3434" stroke-width="0.7"/>
</svg>
